<svg xmlns="http://www.w3.org/2000/svg" xmlns:xlink="http://www.w3.org/1999/xlink" width="45" height="52" viewBox="0 0 45 52">
    <defs>
        <path id="a" d="M43.867 25.517V.097H0v50.84h43.867v-25.42z"/>
    </defs>
    <g fill="none" fill-rule="evenodd">
        <g transform="translate(.25 .437)">
            <mask id="b" fill="#fff">
                <use xlink:href="#a"/>
            </mask>
            <path fill="#F0C738" d="M43.867 21.994c0 18.861-21.934 28.943-21.934 28.943S0 40.225 0 21.994C0 9.901 9.82.097 21.933.097c12.114 0 21.934 9.804 21.934 21.897" mask="url(#b)"/>
        </g>
        <path fill="#FFF" d="M22.213 27.653c.317 0 .576.259.576.576v2.33l.49-.057a8.218 8.218 0 0 0 7.061-7.05l.058-.49h-2.335a.578.578 0 0 1-.576-.575c0-.316.26-.575.576-.575h2.335l-.058-.49c-.49-3.683-3.4-6.56-7.06-7.05l-.49-.085v2.33a.578.578 0 0 1-1.154 0v-2.33l-.49.057a8.218 8.218 0 0 0-7.06 7.05l-.087.518h2.334c.317 0 .577.259.577.575 0 .317-.26.576-.577.576H14l.057.489c.49 3.683 3.401 6.56 7.062 7.05l.49.057v-2.33a.624.624 0 0 1 .605-.576m0 7.05a.578.578 0 0 1-.577-.576v-2.36l-.374-.028c-4.381-.46-7.926-3.97-8.359-8.345l-.086-.431h-2.335a.578.578 0 0 1-.576-.576c0-.316.26-.575.576-.575h2.364l.029-.374c.46-4.374 3.977-7.913 8.358-8.345l.374-.029v-2.388a.578.578 0 0 1 1.153 0v2.36l.375.028c4.38.46 7.926 3.971 8.358 8.345l.03.374h2.362c.317 0 .577.259.577.575 0 .317-.26.576-.577.576h-2.363l-.029.374c-.46 4.374-3.977 7.913-8.358 8.345l-.346.115v2.36c0 .316-.26.575-.576.575"/>
    </g>
</svg>
