<svg xmlns="http://www.w3.org/2000/svg" width="83" height="83" viewBox="0 0 83 83">
    <path fill="#000" fill-rule="evenodd" d="M41.5 0C18.58 0 0 18.58 0 41.5S18.58 83 41.5 83 83 64.42 83 41.5 64.42 0 41.5 0m0 3.773c20.803 0 37.727 16.924 37.727 37.727 0 8.402-2.795 16.147-7.458 22.425-5.444-8.666-14.17-14.487-24.16-16.192 5.285-2.347 8.982-7.625 8.982-13.778 0-8.334-6.757-15.091-15.091-15.091s-15.091 6.757-15.091 15.09c0 6.154 3.697 11.428 8.983 13.779-9.99 1.705-18.717 7.526-24.16 16.192-4.664-6.278-7.46-14.023-7.46-22.425 0-20.803 16.925-37.727 37.728-37.727M30.182 33.955c0-6.24 5.078-11.319 11.318-11.319 6.24 0 11.318 5.078 11.318 11.319 0 6.24-5.078 11.318-11.318 11.318-6.24 0-11.318-5.078-11.318-11.318M41.5 79.227c-10.964 0-20.818-4.727-27.714-12.22 5.727-9.933 16.128-16.075 27.714-16.075 11.586 0 21.987 6.142 27.714 16.075-6.896 7.493-16.75 12.22-27.714 12.22"/>
</svg>
