<svg xmlns="http://www.w3.org/2000/svg" xmlns:xlink="http://www.w3.org/1999/xlink" width="56" height="72" viewBox="0 0 56 72">
    <defs>
        <path id="a" d="M43.867 25.517V.097H0v50.84h43.867v-25.42z"/>
    </defs>
    <g fill="none" fill-rule="evenodd" transform="translate(.412 .295)">
        <ellipse cx="27.383" cy="43.73" fill="#FFF" fill-opacity=".7" stroke="#EFC638" rx="26.799" ry="26.788"/>
        <g transform="translate(5.839 .142)">
            <mask id="b" fill="#fff">
                <use xlink:href="#a"/>
            </mask>
            <path fill="#F0C738" d="M43.867 21.994c0 18.861-21.934 28.943-21.934 28.943S0 40.225 0 21.994C0 9.901 9.82.097 21.933.097c12.114 0 21.934 9.804 21.934 21.897" mask="url(#b)"/>
        </g>
        <path fill="#FFF" d="M27.801 27.358c.317 0 .577.259.577.575v2.33l.49-.057a8.218 8.218 0 0 0 7.06-7.05l.058-.489h-2.334a.578.578 0 0 1-.577-.575c0-.317.26-.576.577-.576h2.334l-.057-.489c-.49-3.683-3.401-6.56-7.062-7.05l-.49-.086v2.33a.578.578 0 0 1-1.152 0v-2.33l-.49.058a8.218 8.218 0 0 0-7.062 7.05l-.086.517h2.335c.317 0 .576.26.576.576 0 .316-.26.575-.576.575h-2.335l.058.49c.49 3.683 3.4 6.56 7.06 7.05l.49.057v-2.33a.624.624 0 0 1 .606-.576m0 7.05a.578.578 0 0 1-.576-.576v-2.36l-.375-.028c-4.38-.46-7.926-3.971-8.358-8.345l-.087-.432h-2.334a.578.578 0 0 1-.577-.575c0-.317.26-.576.577-.576h2.363l.029-.374c.461-4.373 3.977-7.913 8.358-8.344l.375-.029v-2.388a.578.578 0 0 1 1.153 0v2.36l.374.028c4.381.46 7.926 3.97 8.359 8.345l.028.374h2.364c.317 0 .576.259.576.575 0 .317-.26.576-.576.576H37.11l-.028.374c-.462 4.373-3.978 7.913-8.359 8.344l-.345.115v2.36c0 .316-.26.575-.577.575"/>
    </g>
</svg>
